<?xml version="1.0" standalone="no"?><!DOCTYPE svg PUBLIC "-//W3C//DTD SVG 1.1//EN" "http://www.w3.org/Graphics/SVG/1.1/DTD/svg11.dtd"><svg t="1601480697930" class="icon" viewBox="0 0 1024 1024" version="1.1" xmlns="http://www.w3.org/2000/svg" p-id="1636" xmlns:xlink="http://www.w3.org/1999/xlink" width="200" height="200"><defs><style type="text/css"></style></defs><path d="M939.8 570.8l-173-256.5c-2.7 29.5-9.8 57.6-20.6 83.8l77.2 114.4c-58.1 4-105.5 46.7-116.6 102.4l-60.6-53.3-38.6 51.4 136.1 119.7c23 22 54.2 35.6 88.5 35.6 70.7 0 128-57.3 128-128 0-25.7-7.5-49.5-20.4-69.5zM832.2 704.2c-35.3 0-64-28.7-64-64s28.7-64 64-64 64 28.7 64 64c0 35.4-28.6 64-64 64zM224 704.2c-17.7 0-32 14.3-32 32s14.3 32 32 32 32-14.3 32-32c0-17.6-14.3-32-32-32z" p-id="1637"></path><path d="M659.1 422.5C687.3 385 704 338.5 704 288c0-123.7-100.3-224-224-224-90.7 0-168.8 53.9-204.1 131.5l0.1 0.1L82.3 661.9C70.6 684.1 64 709.4 64 736.2c0 88.4 71.6 160 160 160 54.9 0 103.4-27.7 132.2-69.9l302.9-403.8z m-51.6-37.7L301.8 792.3l0.1 0.1c-17.4 24.1-45.8 39.9-77.9 39.9-53 0-96-43-96-96 0-18.1 5-35 13.7-49.4l-0.3-0.3 194.2-467.5C361.4 165.2 416.3 128 480 128c88.4 0 160 71.6 160 160 0 36.4-12.1 69.9-32.5 96.8z" p-id="1638"></path><path d="M480 192c-53 0-96 43-96 96s43 96 96 96 96-43 96-96-43-96-96-96z m32 96c0 17.7-14.3 32-32 32s-32-14.3-32-32 14.3-32 32-32 32 14.3 32 32z" p-id="1639"></path></svg>